# AST/ASF file generated using VICON BodyLanguage
# -----------------------------------------------
:version 1.10
:name VICON
:units
  mass 1.0
  length 0.45
  angle deg
:documentation
   .ast/.asf automatically generated from VICON data using
   VICON BodyBuilder and BodyLanguage model FoxedUp or BRILLIANT.MOD
:root
   order TX TY TZ RX RY RZ
   axis XYZ
   position 0 0 0  
   orientation 0 0 0 
:bonedata
  begin
     id 1 
     name lhipjoint
     direction 0.662698 -0.695252 0.27831 
     length 2.53073 
     axis 0 0 0  XYZ
  end
  begin
     id 2 
     name lfemur
     direction 0.34202 -0.939693 0  
     length 7.16147  
     axis 0 0 20  XYZ
    dof rx ry rz
    limits (-160.0 20.0)
           (-70.0 70.0)
           (-60.0 70.0)
  end
  begin
     id 3 
     name ltibia
     direction 0.34202 -0.939693 0   
     length 7.63967   
     axis 0 0 20   XYZ
    dof rx
    limits (-10.0 170.0)
  end
  begin
     id 4 
     name lfoot
     direction 0.0938457 -0.257721 0.961651   
     length 1.89793   
     axis -90 7.62852e-016 20   XYZ
    dof rx rz
    limits (-45.0 90.0)
           (-70.0 20.0)
  end
  begin
     id 5 
     name ltoes
     direction -0.00116841 -0.0030592 0.999995   
     length 0.955649   
     axis -90 7.62852e-016 20   XYZ
    dof rx
    limits (-90.0 20.0)
  end
  begin
     id 6 
     name rhipjoint
     direction -0.649445 -0.705948 0.282592   
     length 2.49238  
     axis 0 0 0  XYZ 
  end
  begin
     id 7 
     name rfemur
     direction -0.34202 -0.939693 0   
     length 6.90728   
     axis 0 0 -20   XYZ
    dof rx ry rz
    limits (-160.0 20.0)
           (-70.0 70.0)
           (-70.0 60.0)
  end
  begin
     id 8 
     name rtibia
     direction -0.34202 -0.939693 0   
     length 7.72868   
     axis 0 0 -20   XYZ
    dof rx
    limits (-10.0 170.0)
 end
 begin
     id 9 
     name rfoot
     direction -0.0920068 -0.252865 0.963117   
     length 1.97476  
     axis -90 -7.62852e-016 -20   XYZ
    dof rx rz
    limits (-45.0 90.0)
           (-20.0 70.0)
  end
  begin
     id 10 
     name rtoes
     direction 0.000391322 0.00230649 0.999997   
     length 0.992641   
     axis -90 -7.62852e-016 -20   XYZ
    dof rx
    limits (-90.0 20.0)
  end
  begin
     id 11 
     name lowerback
     direction -0.00875327 0.998321 -0.0572635   
     length 2.20024   
     axis 0 0 0   XYZ
    dof rx ry rz
    limits (-20.0 45.0)
           (-30.0 30.0)
           (-30.0 30.0)
  end
  begin
     id 12 
     name upperback
     direction 0.00753931 0.999972 -0.000360425   
     length 2.20538   
     axis 0 0 0   XYZ
    dof rx ry rz
    limits (-20.0 45.0)
           (-30.0 30.0)
           (-30.0 30.0)
  end
  begin
     id 13 
     name thorax
     direction 0.0117767 0.999601 0.0256663   
     length 2.21508   
     axis 0 0 0   XYZ
    dof rx ry rz
    limits (-20.0 45.0)
           (-30.0 30.0)
           (-30.0 30.0)
  end
  begin
     id 14 
     name lowerneck
     direction 0.060228 0.994909 0.0807986   
     length 1.7607   
     axis 0 0 0   XYZ
    dof rx ry rz
    limits (-20.0 45.0)
           (-30.0 30.0)
           (-30.0 30.0)
  end
  begin
     id 15 
     name upperneck
     direction -0.0563647 0.959594 -0.275685   
     length 1.75612   
     axis 0 0 0   XYZ
    dof rx ry rz
    limits (-20.0 45.0)
           (-30.0 30.0)
           (-30.0 30.0)
  end
  begin
     id 16
     name head
     direction -0.0161544 0.99458 -0.102714  
     length 1.79288  
     axis 0 0 0   XYZ
    dof rx ry rz
    limits (-20.0 45.0)
           (-30.0 30.0)
           (-30.0 30.0)
  end
  begin
     id 17 
     name lclavicle
     direction 0.93913 0.332189 -0.087669  
     length 3.52087  
     axis 0 0 0   XYZ
    dof ry rz
    limits (-20.0 10.0)
           (0.0 20.0)
  end
  begin
     id 18 
     name lhumerus
     direction 1 -4.48974e-011 -2.70836e-027   
     length 5.35289   
     axis -180 -30 -90   XYZ
    dof rx ry rz
    limits (-60.0 90.0)
           (-90.0 90.0)
           (-90.0 90.0)
  end
  begin
     id 19
     name lradius
     direction 1 -4.48961e-011 -9.76021e-027   
     length 3.27727   
     axis -180 -30 -90   XYZ
    dof rx
    limits (-10.0 170.0)
  end
  begin
     id 20
     name lwrist
     direction 1 -4.49103e-011 -2.23668e-026   
     length 1.63864   
     axis 1.44924e-014 90 90   XYZ
    dof ry
    limits (-180.0 0.0)
 end
  begin
     id 21 
     name lhand
     direction 1 3.0697e-005 0.000161777   
     length 0.54443   
     axis 2.85318e-014 90 90   XYZ
    dof rx rz
    limits (-90.0 90.0)
           (-45.0 45.0)
  end
  begin
     id 22 
     name lfingers
     direction 1 -4.49027e-011 -8.9447e-026   
     length 0.438912   
     axis 5.70628e-014 90 90   XYZ
    dof rx
    limits (0.0 90.0)
  end
  begin
     id 23
     name lthumb
     direction 0.707058 2.6516e-005 0.707156   
     length 0.630274   
     axis -90 45 -3.53137e-014   XYZ
    dof rx rz
    limits (-45.0 45.0)
           (-45.0 45.0)
  end
  begin
     id 24 
     name rclavicle
     direction -0.95274 0.284984 -0.105215   
     length 3.43401  
     axis 0 0 0   XYZ 
    dof ry rz
    limits (-10.0 20.0)
           (-20.0 0.0)
  end
  begin
     id 25 
     name rhumerus
     direction -0.999999 -0.000575019 -0.00106829  
     length 5.52077   
     axis -180 30 90   XYZ
    dof rx ry rz
    limits (-90.0 60.0)
           (-90.0 90.0)
           (-90.0 90.0)
  end
  begin
     id 26 
     name rradius
     direction -1 -4.4879e-011 -6.35415e-027   
     length 3.32364   
     axis -180 30 90   XYZ
    dof rx
    limits (-10.0 170.0)
  end
  begin
     id 27 
     name rwrist
     direction -1 -4.49048e-011 -9.98542e-027   
     length 1.66182   
     axis 6.32482e-015 -90 -90   XYZ
    dof ry
    limits (-180.0 0.0)
  end
  begin
     id 28
     name rhand
     direction -1 -4.48978e-011 -1.99771e-026   
     length 0.732235   
     axis 1.27479e-014 -90 -90   XYZ
    dof rx rz
    limits (-90.0 90.0)
           (-45.0 45.0)
  end
  begin
     id 29
     name rfingers
     direction -1 -4.49144e-011 -3.99245e-026   
     length 0.590347   
     axis 2.5496e-014 -90 -90   XYZ
    dof rx
    limits (0.0 90.0)
  end
  begin
     id 30
     name rthumb
     direction -0.707107 -6.35121e-011 0.707107   
     length 0.847624   
     axis -90 -45 -2.82974e-014   XYZ
    dof rx rz
    limits (-45.0 45.0)
           (-45.0 45.0)
  end
:hierarchy
  begin
    root lhipjoint rhipjoint lowerback
    lhipjoint lfemur
    lfemur ltibia
    ltibia lfoot
    lfoot ltoes
    rhipjoint rfemur
    rfemur rtibia
    rtibia rfoot
    rfoot rtoes
    lowerback upperback
    upperback thorax
    thorax lowerneck lclavicle rclavicle
    lowerneck upperneck
    upperneck head
    lclavicle lhumerus
    lhumerus lradius
    lradius lwrist
    lwrist lhand lthumb
    lhand lfingers
    rclavicle rhumerus
    rhumerus rradius
    rradius rwrist
    rwrist rhand rthumb
    rhand rfingers
  end

#!OML:ASF G:\Work\Work\Patient Classification 1\Elijah\terrain1\Elijah.ASF
:FULLY-SPECIFIED
:DEGREES
170
root 15.9569 19.8666 7.4132 2.84125 -10.5734 -1.70764
lowerback 6.59427 0.890088 -0.547191
upperback 1.41267 1.13859 -0.17738
thorax -2.24676 0.568576 0.0289513
lowerneck -12.5753 15.0071 11.3278
upperneck 30.0299 24.8344 -15.7784
head 16.6345 10.0994 -3.52529
rclavicle 3.17062e-014 -1.47101e-014
rhumerus -46.4695 -3.77614 -77.2161
rradius 69.8011
rwrist -11.4952
rhand -15.2596 17.1538
rfingers 7.12502
rthumb 10.9144 -12.5425
lclavicle 3.17062e-014 -1.47101e-014
lhumerus -61.4643 23.4771 53.2353
lradius 36.382
lwrist 22.6772
lhand -16.4427 26.747
lfingers 7.12502
lthumb 9.77302 56.5003
rfemur -26.4067 -7.9317 17.271
rtibia 94.7783
rfoot -11.4347 18.2242
rtoes -9.03625
lfemur -20.0698 3.03486 -22.1005
ltibia 26.7749
lfoot -3.35649 -5.14612
ltoes -11.7133
171
root 15.963 19.6807 7.47142 2.5822 -10.1685 -1.28438
lowerback 7.22035 0.815686 -1.14779
upperback 1.50493 0.987856 -0.231103
thorax -2.50875 0.497233 0.31511
lowerneck -12.3351 14.7563 11.4249
upperneck 30.2124 24.4875 -15.8254
head 16.6307 9.97133 -3.67561
rclavicle 2.0773e-014 -1.82882e-014
rhumerus -46.187 -4.10619 -77.3442
rradius 69.4096
rwrist -11.7081
rhand -16.0934 17.4293
rfingers 7.12502
rthumb 10.1101 -12.3078
lclavicle 2.0773e-014 -1.82882e-014
lhumerus -59.8792 23.6439 54.1277
lradius 35.2551
lwrist 22.773
lhand -17.0089 27.256
lfingers 7.12502
lthumb 9.22676 57.0341
rfemur -26.5952 -7.8302 16.3984
rtibia 96.3328
rfoot -10.9704 19.2249
rtoes -7.29629
lfemur -20.5377 3.18948 -22.9012
ltibia 29.4103
lfoot -7.27351 -5.22659
ltoes -21.3744
172
root 15.9637 19.5345 7.53027 2.49225 -9.5655 -1.1194
lowerback 7.61692 0.738244 -1.40179
upperback 1.71179 0.858159 -0.295842
thorax -2.51675 0.43306 0.399713
lowerneck -12.5506 14.8277 11.4847
upperneck 29.8658 24.6615 -16.2637
head 16.6481 10.0025 -3.79522
rclavicle 4.47266e-016 -1.59028e-014
rhumerus -45.5394 -4.70477 -77.6328
rradius 68.7515
rwrist -12.003
rhand -16.851 17.7023
rfingers 7.12502
rthumb 9.37912 -12.069
lclavicle 4.47266e-016 -1.59028e-014
lhumerus -57.6877 24.0502 54.9474
lradius 33.7147
lwrist 22.056
lhand -16.9475 27.2438
lfingers 7.12502
lthumb 9.28597 57.0193
rfemur -26.696 -7.8067 15.9697
rtibia 97.4919
rfoot -10.828 19.9577
rtoes -7.25857
lfemur -21.3192 2.72754 -23.1464
ltibia 32.0094
lfoot -10.047 -5.18512
ltoes -22.0194
173
root 15.9646 19.467 7.60132 2.63309 -8.9869 -1.3431
lowerback 7.68658 0.650481 -1.25474
upperback 1.94963 0.754253 -0.278827
thorax -2.30655 0.37844 0.345676
lowerneck -12.2035 14.3674 11.7568
upperneck 29.3533 23.9765 -16.8332
head 16.3365 9.74184 -4.26223
rclavicle 9.0944e-015 -7.55382e-015
rhumerus -44.7281 -5.16833 -78.0836
rradius 67.9493
rwrist -12.3651
rhand -17.6986 17.7841
rfingers 7.12502
rthumb 8.56122 -12.0224
lclavicle 9.0944e-015 -7.55382e-015
lhumerus -55.4208 24.5045 55.7887
lradius 32.3008
lwrist 21.0457
lhand -16.6814 27.5406
lfingers 7.12502
lthumb 9.54275 57.3045
rfemur -26.605 -7.60935 16.1322
rtibia 98.0439
rfoot -10.11 20.5385
rtoes -6.07078
lfemur -22.8017 2.13664 -22.8247
ltibia 34.6701
lfoot -11.0063 -5.96323
ltoes -16.9569
174
root 15.9664 19.3729 7.66993 2.81006 -8.52446 -1.91417
lowerback 7.86437 0.582267 -0.834212
upperback 1.93081 0.699976 -0.0846681
thorax -2.42138 0.35033 0.312877
lowerneck -13.0294 14.6869 11.0065
upperneck 29.8105 24.475 -16.1689
head 16.5935 9.85476 -3.69854
rclavicle -7.85199e-015 -1.15295e-014
rhumerus -44.3476 -5.26501 -78.4393
rradius 66.9572
rwrist -12.6536
rhand -18.5229 17.9937
rfingers 7.12502
rthumb 7.76566 -11.8437
lclavicle -7.85199e-015 -1.15295e-014
lhumerus -53.7595 25.0735 56.2328
lradius 30.7421
lwrist 19.4675
lhand -16.6235 28.0972
lfingers 7.12502
lthumb 9.59861 57.8585
rfemur -26.6031 -7.14728 16.7663
rtibia 98.6048
rfoot -9.00644 20.8841
rtoes -3.18973
lfemur -24.0405 1.929 -22.2484
ltibia 37.0421
lfoot -12.3362 -6.41652
ltoes -12.8491
175
root 15.9644 19.2726 7.72903 2.92842 -7.93647 -2.44319
lowerback 8.17467 0.489873 -0.447575
upperback 1.89416 0.611886 0.0930083
thorax -2.62843 0.305323 0.284667
lowerneck -12.4431 14.297 10.9352
upperneck 29.8381 23.8717 -16.0661
head 16.3158 9.65503 -3.84593
rclavicle 1.2275e-014 -2.34566e-014
rhumerus -44.0134 -5.29999 -78.8669
rradius 65.9815
rwrist -12.8021
rhand -19.1736 17.9897
rfingers 7.12502
rthumb 7.13756 -11.8699
lclavicle 1.2275e-014 -2.34566e-014
lhumerus -52.1 25.65 56.8082
lradius 29.3926
lwrist 17.3057
lhand -16.6903 28.7664
lfingers 7.12502
lthumb 9.53414 58.5307
rfemur -26.5997 -6.89319 17.4188
rtibia 99.1899
rfoot -8.64238 21.0515
rtoes -3.71288
lfemur -25.0506 1.85821 -21.8158
ltibia 39.2628
lfoot -14.1817 -6.16159
ltoes -16.8821
176
root 15.9587 19.1775 7.7797 3.08764 -7.40883 -2.84719
lowerback 8.34448 0.396766 -0.108304
upperback 2.02736 0.517304 0.125337
thorax -2.58157 0.256171 0.136465
lowerneck -12.7856 14.4346 10.7695
upperneck 29.8101 24.1185 -16.1045
head 16.4125 9.71006 -3.74894
rclavicle -1.00386e-014 1.86858e-014
rhumerus -43.4749 -5.33151 -79.5523
rradius 65.1083
rwrist -12.7892
rhand -19.4377 18.4697
rfingers 7.12502
rthumb 6.88268 -11.3984
lclavicle -1.00386e-014 1.86858e-014
lhumerus -50.1572 25.9728 57.866
lradius 28.8224
lwrist 15.4912
lhand -16.8869 29.3574
lfingers 7.12502
lthumb 9.34449 59.1303
rfemur -26.7239 -6.71386 18.0173
rtibia 99.7368
rfoot -8.79182 21.1103
rtoes -6.57765
lfemur -25.7931 1.81926 -21.5485
ltibia 41.0618
lfoot -16.2713 -5.70193
ltoes -14.699
177
root 15.9536 19.0696 7.83308 3.23896 -7.21436 -3.27164
lowerback 8.39556 0.456752 0.350016
upperback 2.12184 0.634793 0.0946104
thorax -2.50732 0.312413 -0.16496
lowerneck -12.6859 14.1103 10.8027
upperneck 30.2507 23.6028 -15.834
head 16.4583 9.51622 -3.79605
rclavicle 1.68967e-015 -2.62396e-014
rhumerus -43.0657 -5.33706 -80.2389
rradius 64.1031
rwrist -12.6123
rhand -19.2821 19.3615
rfingers 7.12502
rthumb 7.0328 -10.5017
lclavicle 1.68967e-015 -2.62396e-014
lhumerus -48.4237 26.3233 58.6463
lradius 28.398
lwrist 13.152
lhand -16.8416 31.322
lfingers 7.12502
lthumb 9.38818 61.0929
rfemur -26.9307 -6.18415 18.6503
rtibia 100.324
rfoot -8.6552 21.1265
rtoes -6.7237
lfemur -26.2613 1.81022 -21.2259
ltibia 42.5928
lfoot -17.6752 -4.39207
ltoes -21.3933
178
root 15.9662 19.0474 7.9352 2.99535 -7.35893 -3.39261
lowerback 8.35236 0.623992 0.72251
upperback 2.39195 0.880792 -0.0990232
thorax -2.19431 0.435046 -0.596686
lowerneck -12.2827 13.9186 11.1274
upperneck 29.8249 23.3313 -16.3221
head 16.2495 9.4368 -4.13261
rclavicle -9.64106e-015 6.36111e-015
rhumerus -42.4769 -5.23505 -81.0267
rradius 62.8901
rwrist -12.3007
rhand -19.0404 19.551
rfingers 7.12502
rthumb 7.26616 -10.3042
lclavicle -9.64106e-015 6.36111e-015
lhumerus -47.0172 26.4696 59.5098
lradius 28.711
lwrist 10.581
lhand -15.646 28.7322
lfingers 7.12502
lthumb 10.5416 58.4479
rfemur -26.0675 -5.30646 18.6999
rtibia 100.246
rfoot -8.28168 21.3565
rtoes -3.9344
lfemur -26.0563 1.74596 -21.2652
ltibia 43.6359
lfoot -18.7745 -3.21486
ltoes -25.4895
179
root 15.9714 19.0274 8.01355 3.17046 -6.85825 -3.3006
lowerback 7.91914 0.571889 0.888535
upperback 2.79322 0.814264 -0.33312
thorax -1.53566 0.407333 -0.915879
lowerneck -13.9788 14.0321 10.5453
upperneck 31.2247 23.419 -15.1069
head 17.036 9.35071 -3.43916
rclavicle 7.55382e-015 1.07344e-014
rhumerus -41.3057 -5.07431 -81.966
rradius 61.6625
rwrist -11.8089
rhand -18.718 19.6335
rfingers 7.12502
rthumb 7.57735 -10.2107
lclavicle 7.55382e-015 1.07344e-014
lhumerus -45.1948 26.4869 60.9376
lradius 29.759
lwrist 8.64387
lhand -15.1538 29.0687
lfingers 7.12502
lthumb 11.0164 58.7597
rfemur -25.6858 -5.15704 18.6621
rtibia 100.185
rfoot -8.30883 21.4591
rtoes -2.97689
lfemur -26.6188 0.860907 -21.3294
ltibia 44.6338
lfoot -19.1795 -3.92976
ltoes -20.8184
180
root 15.9756 18.9828 8.08623 3.252 -6.67008 -3.1372
lowerback 8.03171 0.632555 0.82825
upperback 2.91569 0.888802 -0.415511
thorax -1.46954 0.445388 -0.974123
lowerneck -14.9554 14.1146 10.0468
upperneck 32.1613 23.6381 -14.5218
head 17.6061 9.33143 -3.01952
rclavicle 1.2424e-014 9.14409e-015
rhumerus -40.7726 -4.32247 -82.6858
rradius 61.0189
rwrist -11.3417
rhand -18.2472 19.7356
rfingers 7.12502
rthumb 8.03177 -10.0918
lclavicle 1.2424e-014 9.14409e-015
lhumerus -43.6786 26.5142 62.3443
lradius 30.4005
lwrist 6.61314
lhand -14.7651 28.0213
lfingers 7.12502
lthumb 11.3913 57.6919
rfemur -25.4096 -4.78364 18.5624
rtibia 100.25
rfoot -8.41713 21.406
rtoes -3.8122
lfemur -26.8299 0.333617 -21.5589
ltibia 45.4388
lfoot -19.7991 -3.7156
ltoes -20.6004
181
root 15.9759 18.967 8.15206 3.44655 -6.44985 -3.02827
lowerback 8.17316 0.581523 0.517799
upperback 2.86524 0.799723 -0.333566
thorax -1.60744 0.398867 -0.709431
lowerneck -15.1022 14.3263 9.9491
upperneck 32.5897 24.1276 -14.553
head 17.9655 9.47588 -2.89279
rclavicle -1.3418e-014 -2.78299e-015
rhumerus -40.4893 -2.84744 -83.4088
rradius 60.636
rwrist -10.8722
rhand -17.5167 20.3952
rfingers 7.12502
rthumb 8.73674 -9.40403
lclavicle -1.3418e-014 -2.78299e-015
lhumerus -42.7141 26.5993 63.6484
lradius 31.2119
lwrist 4.57792
lhand -14.3322 25.9239
lfingers 7.12502
lthumb 11.8087 55.571
rfemur -25.2316 -4.43736 18.6117
rtibia 100.238
rfoot -8.23046 21.1573
rtoes -3.88107
lfemur -27.5192 -0.343867 -21.6456
ltibia 46.3601
lfoot -19.8079 -4.14128
ltoes -16.7431
